<?xml version="1.0" standalone="no"?>
<!DOCTYPE svg PUBLIC "-//W3C//DTD SVG 20010904//EN"
 "http://www.w3.org/TR/2001/REC-SVG-20010904/DTD/svg10.dtd">
<svg version="1.0" xmlns="http://www.w3.org/2000/svg"
 width="840.000000pt" height="779.000000pt" viewBox="0 0 840.000000 779.000000"
 preserveAspectRatio="xMidYMid meet">

<g transform="translate(0.000000,779.000000) scale(0.100000,-0.100000)"
fill="#000000" stroke="none">
<path d="M475 7780 c-215 -43 -387 -200 -449 -409 -15 -50 -16 -358 -16 -3476
0 -3104 1 -3426 16 -3476 59 -202 231 -362 433 -405 61 -12 520 -14 3473 -11
3146 2 3407 3 3450 19 94 34 164 75 227 133 79 74 122 140 158 242 l28 78 0
3420 0 3420 -28 78 c-69 195 -212 326 -415 378 -74 19 -146 19 -3456 18 -1860
-1 -3399 -5 -3421 -9z m1468 -1098 c113 -41 180 -84 267 -172 94 -93 145 -180
176 -300 23 -87 23 -244 0 -330 -49 -180 -185 -349 -347 -429 -193 -95 -405
-95 -599 1 -115 56 -239 178 -292 288 -56 112 -72 187 -71 315 0 90 5 125 26
190 59 180 173 312 342 395 122 61 170 71 315 66 93 -3 140 -9 183 -24z m3517
-1733 c631 -57 984 -373 1113 -995 61 -293 67 -425 67 -1691 l0 -1103 -575 0
-574 0 -4 1083 c-4 1148 -4 1138 -52 1303 -28 96 -83 193 -144 255 -105 104
-216 143 -411 143 -210 -1 -338 -46 -461 -161 -108 -102 -172 -246 -210 -475
-9 -53 -13 -349 -16 -1110 l-4 -1038 -575 0 -574 0 0 1855 0 1855 555 0 555 0
0 -255 c0 -140 3 -255 8 -255 4 0 27 33 52 73 61 98 204 240 318 314 263 173
557 237 932 202z m-3150 -1934 l0 -1855 -575 0 -575 0 0 1855 0 1855 575 0
575 0 0 -1855z"/>
<path d="M8105 1501 c-136 -63 -167 -234 -60 -337 119 -115 309 -58 346 103
38 165 -133 305 -286 234z m162 -32 c58 -28 93 -87 93 -158 0 -60 -17 -98 -60
-135 -82 -69 -208 -46 -260 46 -18 32 -21 51 -18 102 5 75 33 120 92 147 54
24 100 24 153 -2z"/>
<path d="M8120 1310 c0 -91 3 -110 15 -110 11 0 15 12 15 50 0 67 24 67 68 0
17 -28 39 -50 47 -50 21 0 19 5 -15 56 -21 30 -26 44 -17 44 21 0 47 34 47 62
0 41 -29 58 -98 58 l-62 0 0 -110z m118 49 c3 -22 -2 -27 -29 -33 -55 -11 -59
-8 -59 30 l0 35 43 -3 c37 -3 42 -6 45 -29z"/>
</g>
</svg>
